<svg width="160" height="26" viewBox="0 0 160 26" fill="none" xmlns="http://www.w3.org/2000/svg">
<path d="M0 0.00927734H11.6329V0.649992H11.2235C11.2235 0.649992 9.91529 0.719634 10.24 2.21463C10.4894 3.38463 16.2965 17.8193 16.2965 17.8193L13.5059 25.7168H10.9318L1.97647 2.30749C1.97647 2.30749 1.44 0.942492 0 0.63142V0.00927734Z" fill="#F49661"/>
<path d="M13.2195 0H24.8525V0.640714H24.4431C24.4431 0.640714 23.1348 0.710357 23.4595 2.20536C23.709 3.37536 29.516 17.81 29.516 17.81L26.7254 25.7075H24.1513L15.1913 2.29821C15.1913 2.29821 14.6595 0.928571 13.2148 0.622143V0H13.2195Z" fill="#F49661"/>
<path d="M31.5896 6.57429C33.4297 6.57429 34.9213 5.10258 34.9213 3.28714C34.9213 1.4717 33.4297 0 31.5896 0C29.7495 0 28.2578 1.4717 28.2578 3.28714C28.2578 5.10258 29.7495 6.57429 31.5896 6.57429Z" fill="#C55858"/>
<path d="M34.5647 4.76822L32.3483 9.58286L31.1953 6.00322L34.5647 4.76822Z" fill="#C55858"/>
<path d="M45.8322 25.7168L41.6016 10.8086H45.7663L48.0957 20.2011L50.7922 10.8086H53.8369L56.5333 20.2011L58.8863 10.8086H63.0322L58.8251 25.7168H54.7451L52.3263 17.3039L49.9074 25.7168H45.8274H45.8322Z" fill="#353535"/>
<path d="M72.2339 25.7168L69.5986 20.9021H68.2151V25.7168H64.3516V10.8086H70.3939C71.9327 10.8086 73.2269 11.2961 74.2669 12.2664C75.3116 13.2368 75.8339 14.4718 75.8339 15.9621C75.8339 16.8582 75.6033 17.6753 75.1421 18.4228C74.681 19.1703 74.0551 19.76 73.2645 20.2011L76.3751 25.7168H72.2292H72.2339ZM68.2198 14.3232V17.6661H70.3563C70.8316 17.68 71.2174 17.5314 71.5233 17.2203C71.8245 16.9093 71.9751 16.5053 71.9751 16.0086C71.9751 15.5118 71.8245 15.1078 71.5233 14.7968C71.2221 14.4857 70.8316 14.3278 70.3563 14.3278H68.2198V14.3232Z" fill="#353535"/>
<path d="M77.7383 10.8086H81.6018V25.7168H77.7383V10.8086Z" fill="#353535"/>
<path d="M94.3365 10.8086V14.495H90.6V25.7168H86.7365V14.495H83V10.8086H94.3318H94.3365Z" fill="#353535"/>
<path d="M99.6018 22.1371H105.451V25.7168H95.7383V10.8086H105.343V14.365H99.6018V16.4311H104.802V19.9457H99.6018V22.1371Z" fill="#353535"/>
<path d="M122.697 10.8086V25.7168H118.857V17.6893L115.186 23.6739H114.796L111.149 17.7125V25.7214H107.285V10.8086H111.149L114.989 17.1786L118.852 10.8086H122.692H122.697Z" fill="#353535"/>
<path d="M134.499 25.7168L133.774 23.5671H128.631L127.977 25.7168H123.793L128.607 10.8086H133.473L138.471 25.7168H134.494H134.499ZM129.628 20.2846H132.673L131.139 15.2146L129.628 20.2846Z" fill="#353535"/>
<path d="M148.864 10.8086V14.495H145.127V25.7168H141.264V14.495H137.527V10.8086H148.859H148.864Z" fill="#353535"/>
<path d="M154.129 22.1371H159.979V25.7168H150.266V10.8086H159.87V14.365H154.129V16.4311H159.329V19.9457H154.129V22.1371Z" fill="#353535"/>
</svg>
