<svg  viewBox="0 0 46 39" fill="none" xmlns="http://www.w3.org/2000/svg">
<path d="M23 0.796875L45.4531 39H0.5L23 0.796875ZM19.8594 31.5469C19.8594 32.1094 20 32.6328 20.2812 33.1172C20.5625 33.5859 20.9453 33.9688 21.4297 34.2656C21.9141 34.5469 22.4375 34.6875 23 34.6875C23.5625 34.6875 24.0781 34.5469 24.5469 34.2656C25.0312 33.9844 25.4062 33.6094 25.6719 33.1406C25.9531 32.6562 26.0938 32.1406 26.0938 31.5938C26.0938 31.0156 25.9609 30.4844 25.6953 30C25.4297 29.5156 25.0625 29.1328 24.5938 28.8516C24.125 28.5547 23.6094 28.4062 23.0469 28.4062C22.4688 28.4062 21.9375 28.5469 21.4531 28.8281C20.9688 29.0938 20.5781 29.4688 20.2812 29.9531C20 30.4375 19.8594 30.9688 19.8594 31.5469ZM20.8438 24.75H25.2031L25.4844 13.5469H20.5625L20.8438 24.75Z" fill="#F22828"/>
</svg>
