<svg width="36" height="36" viewBox="0 0 36 36" fill="none" xmlns="http://www.w3.org/2000/svg">
<rect width="36" height="36" rx="8" fill="#FFEDE4"/>
<path d="M9 25.7778V10.2222C9 8.99492 9.99492 8 11.2222 8H26.1111C26.4793 8 26.7778 8.29848 26.7778 8.66667V23.2381" stroke="#353535" stroke-width="2" stroke-linecap="round"/>
<path d="M11.2227 23.5557H26.7782" stroke="#353535" stroke-width="2" stroke-linecap="round"/>
<path d="M11.2227 28H26.7782" stroke="#353535" stroke-width="2" stroke-linecap="round"/>
<path d="M11.2222 28.0001C9.99492 28.0001 9 27.0052 9 25.7779C9 24.5506 9.99492 23.5557 11.2222 23.5557" stroke="#353535" stroke-width="2" stroke-linecap="round" stroke-linejoin="round"/>
<path d="M16.8965 17.4756C16.8965 17.0566 16.9305 16.7183 16.9985 16.4604C17.0701 16.2026 17.1722 15.9967 17.3047 15.8428C17.4372 15.6852 17.6162 15.5348 17.8418 15.3916C18.1139 15.2126 18.3198 15.0425 18.4595 14.8813C18.6027 14.7202 18.6761 14.5322 18.6797 14.3174C18.6761 14.0882 18.5955 13.902 18.438 13.7588C18.2804 13.6156 18.0853 13.5439 17.8525 13.5439C17.695 13.5439 17.5482 13.578 17.4121 13.646C17.2796 13.714 17.1722 13.8143 17.0898 13.9468C17.0075 14.0757 16.9645 14.2279 16.9609 14.4033H15.2529C15.2601 13.8984 15.3783 13.4741 15.6074 13.1304C15.8402 12.7866 16.1499 12.5324 16.5366 12.3677C16.9269 12.1994 17.3656 12.1152 17.8525 12.1152C18.3753 12.1152 18.839 12.1976 19.2437 12.3623C19.6483 12.527 19.9652 12.7687 20.1943 13.0874C20.4235 13.4061 20.5381 13.7874 20.5381 14.2314C20.5345 14.6611 20.4289 15.0264 20.2212 15.3271C20.0171 15.6243 19.7217 15.8893 19.335 16.1221C19.0306 16.2975 18.8122 16.4855 18.6797 16.686C18.5472 16.883 18.4792 17.1462 18.4756 17.4756V17.626H16.8965V17.4756ZM16.7461 19.1299C16.7425 18.958 16.7837 18.7987 16.8696 18.6519C16.9591 18.505 17.0773 18.3887 17.2241 18.3027C17.3745 18.2168 17.5374 18.1738 17.7129 18.1738C17.8812 18.1738 18.0405 18.2168 18.1909 18.3027C18.3413 18.3887 18.4613 18.505 18.5508 18.6519C18.6439 18.7987 18.6904 18.958 18.6904 19.1299C18.6904 19.3053 18.6439 19.4683 18.5508 19.6187C18.4613 19.769 18.3413 19.889 18.1909 19.9785C18.0405 20.0645 17.8812 20.1074 17.7129 20.1074C17.5374 20.1074 17.3745 20.0645 17.2241 19.9785C17.0773 19.889 16.9591 19.769 16.8696 19.6187C16.7837 19.4683 16.7425 19.3053 16.7461 19.1299Z" fill="#353535"/>
</svg>
