<svg xmlns="http://www.w3.org/2000/svg" width="25" height="23" viewBox="0 0 23 22" fill="none">
  <path d="M11.5 14C12.3283 14 13 13.3283 13 12.5C13 11.6717 12.3283 11 11.5 11C10.6717 11 10 11.6717 10 12.5C10 13.3283 10.6717 14 11.5 14Z" fill="#606060"/>
  <path d="M11.5 20C12.3283 20 13 19.3283 13 18.5C13 17.6717 12.3283 17 11.5 17C10.6717 17 10 17.6717 10 18.5C10 19.3283 10.6717 20 11.5 20Z" fill="#606060"/>
  <path d="M11.5 8C12.3283 8 13 7.32842 13 6.5C13 5.67158 12.3283 5 11.5 5C10.6717 5 10 5.67158 10 6.5C10 7.32842 10.6717 8 11.5 8Z" fill="#606060"/>
</svg>