<svg width="56" height="56" viewBox="0 0 56 56" fill="none" xmlns="http://www.w3.org/2000/svg">
<g filter="url(#filter0_d_769_62357)">
<rect x="3" y="3" width="48" height="48" rx="12" fill="white"/>
</g>
<path d="M27 17C21.4771 17 17 21.4771 17 27C17 32.5228 21.4771 37 27 37C32.5228 37 37 32.5228 37 27C37 21.4771 32.5228 17 27 17Z" stroke="#353535" stroke-width="1.2" stroke-linecap="round" stroke-linejoin="round"/>
<path d="M20 34C20 34 22.0188 30 27 30C31.9812 30 34 34 34 34" stroke="#353535" stroke-width="1.2" stroke-linecap="round" stroke-linejoin="round"/>
<path d="M27 27C28.6569 27 30 25.6569 30 24C30 22.3432 28.6569 21 27 21C25.3431 21 24 22.3432 24 24C24 25.6569 25.3431 27 27 27Z" stroke="#353535" stroke-width="1.2" stroke-linecap="round" stroke-linejoin="round"/>
<defs>
<filter id="filter0_d_769_62357" x="0" y="0" width="56" height="56" filterUnits="userSpaceOnUse" color-interpolation-filters="sRGB">
<feFlood flood-opacity="0" result="BackgroundImageFix"/>
<feColorMatrix in="SourceAlpha" type="matrix" values="0 0 0 0 0 0 0 0 0 0 0 0 0 0 0 0 0 0 127 0" result="hardAlpha"/>
<feOffset dx="1" dy="1"/>
<feGaussianBlur stdDeviation="2"/>
<feComposite in2="hardAlpha" operator="out"/>
<feColorMatrix type="matrix" values="0 0 0 0 0 0 0 0 0 0 0 0 0 0 0 0 0 0 0.12 0"/>
<feBlend mode="normal" in2="BackgroundImageFix" result="effect1_dropShadow_769_62357"/>
<feBlend mode="normal" in="SourceGraphic" in2="effect1_dropShadow_769_62357" result="shape"/>
</filter>
</defs>
</svg>
