<svg viewBox="0 0 20 20" fill="none" xmlns="http://www.w3.org/2000/svg">
<path fill-rule="evenodd" clip-rule="evenodd" d="M12.0317 5.39775L10.9834 4L10.4234 4.42L10.8147 4.94164C9.30645 4.77664 7.73913 5.26451 6.57143 6.40973C5.14357 7.81009 4.68677 9.82696 5.20919 11.6216L5.94397 10.901C5.69505 9.54609 6.09447 8.09548 7.14224 7.04771C8.15865 6.0313 9.55414 5.62501 10.8736 5.82884L10.144 6.37606L10.564 6.93606L11.9617 5.88775L12.2417 5.67775L12.0317 5.39775ZM8.26641 14.7028L9.31472 16.1006L9.87472 15.6806L9.48375 15.1593C10.9927 15.3251 12.561 14.8373 13.7294 13.6915C15.1572 12.2911 15.614 10.2742 15.0916 8.4796L14.3568 9.20022C14.6057 10.5551 14.2063 12.0057 13.1585 13.0535C12.1414 14.0706 10.7446 14.4768 9.4243 14.2719L10.1542 13.7245L9.73415 13.1645L8.33641 14.2128L8.05641 14.4228L8.26641 14.7028Z" fill="#353535"/>
</svg>
