<svg width="48" height="48" viewBox="0 0 48 48" fill="none" xmlns="http://www.w3.org/2000/svg">
<path d="M0 0.0175781H15.9892V1.21346H15.4265C15.4265 1.21346 13.6284 1.34345 14.0747 4.13384C14.4175 6.31762 22.3992 33.2596 22.3992 33.2596L18.5636 48.0001H15.0255L2.71662 4.30715C2.71662 4.30715 1.97925 1.75941 0 1.1788V0.0175781Z" fill="#F49661"/>
<path d="M18.1688 0H34.1581V1.19588H33.5953C33.5953 1.19588 31.7972 1.32587 32.2435 4.11626C32.5863 6.30004 40.568 33.242 40.568 33.242L36.7324 47.9826H33.1943L20.879 4.28957C20.879 4.28957 20.1481 1.73316 18.1624 1.16122V0H18.1688Z" fill="#F49661"/>
<path d="M43.4205 12.2708C45.9497 12.2708 47.9999 9.52387 47.9999 6.13539C47.9999 2.74691 45.9497 0 43.4205 0C40.8913 0 38.8411 2.74691 38.8411 6.13539C38.8411 9.52387 40.8913 12.2708 43.4205 12.2708Z" fill="#C55858"/>
<path d="M47.5084 8.89941L44.4619 17.8859L42.8772 11.2045L47.5084 8.89941Z" fill="#C55858"/>
</svg>
