<svg width="14" height="14" viewBox="0 0 14 14" fill="none" xmlns="http://www.w3.org/2000/svg">
<path d="M7.62192 1.32649C7.62192 1.16201 7.55658 1.00426 7.44027 0.887949C7.32396 0.77164 7.16621 0.706299 7.00173 0.706299C6.83724 0.706299 6.67949 0.77164 6.56319 0.887949C6.44688 1.00426 6.38154 1.16201 6.38154 1.32649V6.28803H1.42C1.25551 6.28803 1.09776 6.35337 0.981455 6.46968C0.865146 6.58599 0.799805 6.74374 0.799805 6.90822C0.799805 7.07271 0.865146 7.23046 0.981455 7.34676C1.09776 7.46307 1.25551 7.52841 1.42 7.52841H6.38154V12.49C6.38154 12.6544 6.44688 12.8122 6.56319 12.9285C6.67949 13.0448 6.83724 13.1101 7.00173 13.1101C7.16621 13.1101 7.32396 13.0448 7.44027 12.9285C7.55658 12.8122 7.62192 12.6544 7.62192 12.49V7.52841H12.5835C12.7479 7.52841 12.9057 7.46307 13.022 7.34676C13.1383 7.23046 13.2037 7.07271 13.2037 6.90822C13.2037 6.74374 13.1383 6.58599 13.022 6.46968C12.9057 6.35337 12.7479 6.28803 12.5835 6.28803H7.62192V1.32649Z" fill="white"/>
</svg>
