<svg width="24" height="24" viewBox="0 0 32 32" fill="none" xmlns="http://www.w3.org/2000/svg">
<g filter="url(#filter0_d_2259_4577)">
<rect x="3" y="3" width="24" height="24" rx="4" fill="white"/>
<rect x="3" y="3" width="24" height="24" rx="4" fill="url(#paint0_radial_2259_4577)" fill-opacity="0.2"/>
<path d="M6.33789 23.6421V22.5483C6.33789 18.3199 10.1435 14.8921 14.8379 14.8921C19.5323 14.8921 23.3379 18.3199 23.3379 22.5483V23.6421" stroke="#373737" stroke-width="1.2" stroke-linecap="round" stroke-linejoin="round"/>
<path d="M14.8379 14.8921C17.3231 14.8921 19.3379 12.9333 19.3379 10.5171C19.3379 8.10084 17.3231 6.14209 14.8379 6.14209C12.3526 6.14209 10.3379 8.10084 10.3379 10.5171C10.3379 12.9333 12.3526 14.8921 14.8379 14.8921Z" stroke="#373737" stroke-width="1.2" stroke-linecap="round" stroke-linejoin="round"/>
</g>
<defs>
<filter id="filter0_d_2259_4577" x="0" y="0" width="32" height="32" filterUnits="userSpaceOnUse" color-interpolation-filters="sRGB">
<feFlood flood-opacity="0" result="BackgroundImageFix"/>
<feColorMatrix in="SourceAlpha" type="matrix" values="0 0 0 0 0 0 0 0 0 0 0 0 0 0 0 0 0 0 127 0" result="hardAlpha"/>
<feOffset dx="1" dy="1"/>
<feGaussianBlur stdDeviation="2"/>
<feComposite in2="hardAlpha" operator="out"/>
<feColorMatrix type="matrix" values="0 0 0 0 0.197132 0 0 0 0 0.245844 0 0 0 0 0.301514 0 0 0 0.2 0"/>
<feBlend mode="normal" in2="BackgroundImageFix" result="effect1_dropShadow_2259_4577"/>
<feBlend mode="normal" in="SourceGraphic" in2="effect1_dropShadow_2259_4577" result="shape"/>
</filter>
<radialGradient id="paint0_radial_2259_4577" cx="0" cy="0" r="1" gradientUnits="userSpaceOnUse" gradientTransform="translate(19.3333 16) rotate(140.56) scale(26.7603 7.02533)">
<stop stop-color="#C8C8C8"/>
<stop offset="1" stop-color="#C6C6C6" stop-opacity="0"/>
</radialGradient>
</defs>
</svg>
