<svg width="20" height="21" viewBox="0 0 20 21" fill="none" xmlns="http://www.w3.org/2000/svg">
<path d="M18.0435 2.67392C17.1408 2.67392 16.3795 3.28849 16.1546 4.12099L3.73387 7.72704C3.42387 7.05486 2.74398 6.58697 1.95652 6.58697C0.877695 6.58697 0 7.46466 0 8.54349V12.4565C0 13.5354 0.877695 14.4131 1.95652 14.4131C2.74398 14.4131 3.42387 13.9451 3.73387 13.273L5.21738 13.7037V14.8774C5.21738 15.7481 5.7777 16.5012 6.61168 16.7515L10.5247 17.9254C10.7089 17.9809 10.9003 18.0093 11.0927 18.0095C11.5061 18.0095 11.911 17.8769 12.2549 17.6211C12.7561 17.2481 13.0435 16.676 13.0435 16.0513V15.9758L16.1546 16.8791C16.3794 17.7116 17.1408 18.3261 18.0435 18.3261C19.1223 18.3261 20 17.4485 20 16.3696V4.63044C20 3.55161 19.1223 2.67392 18.0435 2.67392ZM2.60871 12.4565C2.60871 12.8161 2.31613 13.1087 1.95652 13.1087C1.59691 13.1087 1.30434 12.8161 1.30434 12.4565V8.54349C1.30434 8.18388 1.59691 7.8913 1.95652 7.8913C2.31613 7.8913 2.60871 8.18388 2.60871 8.54349V12.4565ZM11.7391 16.0513C11.7391 16.2595 11.6433 16.4502 11.4763 16.5745C11.3092 16.6988 11.099 16.7357 10.8995 16.676L6.98652 15.502C6.70852 15.4186 6.52176 15.1676 6.52176 14.8774V14.0824L11.7391 15.5971V16.0513ZM16.087 15.5011L12.5857 14.4847L12.5841 14.4842L3.91305 11.9668V9.03329L16.087 5.49896V15.5011ZM18.6957 16.3696C18.6957 16.7292 18.4031 17.0218 18.0435 17.0218C17.6839 17.0218 17.3913 16.7292 17.3913 16.3696V4.63044C17.3913 4.27083 17.6839 3.97826 18.0435 3.97826C18.4031 3.97826 18.6957 4.27083 18.6957 4.63044V16.3696Z" fill="white"/>
</svg>
