<svg width="22" height="22" viewBox="0 0 22 22" fill="none" xmlns="http://www.w3.org/2000/svg">
<g clip-path="url(#clip0_1658_11537)">
<path d="M11 0C4.92525 0 0 4.92456 0 11C0 17.0754 4.92456 22 11 22C17.0754 22 22.0007 17.0754 22.0007 11C22.0007 4.92456 17.0761 0 11 0ZM11 20.647C5.6925 20.647 1.375 16.3075 1.375 11C1.375 5.6925 5.6925 1.375 11 1.375C16.3075 1.375 20.6257 5.6925 20.6257 11C20.6257 16.3075 16.3075 20.647 11 20.647ZM9.98938 17.1978H11.7191V15.4522H9.98938V17.1978ZM10.9794 4.80219C9.97219 4.80219 9.14237 5.07375 8.49063 5.61619C7.83888 6.15862 7.52194 7.24556 7.53775 8.14619L7.56319 8.19637H9.141C9.141 7.65944 9.32044 6.88738 9.67794 6.60963C10.0354 6.33188 10.4699 6.19438 10.9794 6.19438C11.5665 6.19438 12.0182 6.35388 12.3344 6.67288C12.6507 6.99188 12.8081 7.44769 12.8081 8.04031C12.8081 8.53875 12.6912 8.96362 12.4561 9.31563C12.2203 9.66763 11.8264 10.1716 11.2729 10.8267C10.7016 11.3417 10.3489 11.7556 10.2156 12.0684C10.0822 12.3812 10.0114 12.9443 10.0059 13.7555H11.6593C11.6593 13.2467 11.6916 12.8721 11.7556 12.6307C11.8195 12.3894 12.0031 12.1192 12.3049 11.8167C12.9546 11.1904 13.4757 10.5779 13.8703 9.97837C14.2608 9.39201 14.4667 8.70215 14.4616 7.99769C14.4616 6.9905 14.157 6.20537 13.5465 5.64369C12.936 5.082 12.0794 4.80081 10.978 4.80081L10.9794 4.80219Z" fill="#191919"/>
</g>
<defs>
<clipPath id="clip0_1658_11537">
<rect width="22" height="22" fill="white"/>
</clipPath>
</defs>
</svg>
