<svg width="24" height="24" viewBox="0 0 24 24" fill="none" xmlns="http://www.w3.org/2000/svg">
<path d="M12 2C6.47715 2 2 6.47715 2 12C2 17.5228 6.47715 22 12 22C17.5228 22 22 17.5228 22 12C22 6.47715 17.5228 2 12 2Z" stroke="#353535" stroke-width="1.2" stroke-linecap="round" stroke-linejoin="round"/>
<path d="M5 19C5 19 7.01877 15 12 15C16.9812 15 19 19 19 19" stroke="#353535" stroke-width="1.2" stroke-linecap="round" stroke-linejoin="round"/>
<path d="M12 12C13.6569 12 15 10.6569 15 9C15 7.34315 13.6569 6 12 6C10.3431 6 9 7.34315 9 9C9 10.6569 10.3431 12 12 12Z" stroke="#353535" stroke-width="1.2" stroke-linecap="round" stroke-linejoin="round"/>
</svg>
