<svg width="18" height="19" viewBox="0 0 18 19" fill="none" xmlns="http://www.w3.org/2000/svg">
<path d="M4.83464 6.58301L6.5013 4.91634L4.83464 3.24967L3.16797 4.91634L4.83464 6.58301ZM2.33464 11.1663C1.8763 11.1663 1.48394 11.0031 1.15755 10.6768C0.831163 10.3504 0.667969 9.95801 0.667969 9.49967V1.99967C0.667969 1.54134 0.831163 1.14898 1.15755 0.822591C1.48394 0.496202 1.8763 0.333008 2.33464 0.333008H15.668C16.1263 0.333008 16.5187 0.496202 16.8451 0.822591C17.1714 1.14898 17.3346 1.54134 17.3346 1.99967V9.49967C17.3346 9.95801 17.1714 10.3504 16.8451 10.6768C16.5187 11.0031 16.1263 11.1663 15.668 11.1663H12.9805C13.0638 10.8886 13.1194 10.6108 13.1471 10.333C13.1749 10.0552 13.1749 9.77745 13.1471 9.49967H15.668V1.99967H2.33464V9.49967H4.85547C4.82769 9.77745 4.82769 10.0552 4.85547 10.333C4.88325 10.6108 4.9388 10.8886 5.02214 11.1663H2.33464ZM12.7513 5.33301C13.0985 5.33301 13.3937 5.21148 13.6367 4.96842C13.8798 4.72537 14.0013 4.43023 14.0013 4.08301C14.0013 3.73579 13.8798 3.44065 13.6367 3.19759C13.3937 2.95454 13.0985 2.83301 12.7513 2.83301C12.4041 2.83301 12.1089 2.95454 11.8659 3.19759C11.6228 3.44065 11.5013 3.73579 11.5013 4.08301C11.5013 4.43023 11.6228 4.72537 11.8659 4.96842C12.1089 5.21148 12.4041 5.33301 12.7513 5.33301ZM3.16797 18.6663V16.9163C3.16797 16.4302 3.30339 15.9788 3.57422 15.5622C3.84505 15.1455 4.20269 14.833 4.64714 14.6247C5.32769 14.3052 6.03602 14.0656 6.77214 13.9059C7.50825 13.7462 8.2513 13.6663 9.0013 13.6663C9.7513 13.6663 10.4944 13.7462 11.2305 13.9059C11.9666 14.0656 12.6749 14.3052 13.3555 14.6247C13.7999 14.833 14.1576 15.1455 14.4284 15.5622C14.6992 15.9788 14.8346 16.4302 14.8346 16.9163V18.6663H3.16797ZM4.83464 16.9997H13.168V16.9163C13.168 16.7497 13.1194 16.5969 13.0221 16.458C12.9249 16.3191 12.7999 16.215 12.6471 16.1455C12.0638 15.8816 11.4666 15.6802 10.8555 15.5413C10.2444 15.4025 9.6263 15.333 9.0013 15.333C8.3763 15.333 7.75825 15.4025 7.14714 15.5413C6.53602 15.6802 5.9388 15.8816 5.35547 16.1455C5.20269 16.215 5.07769 16.3191 4.98047 16.458C4.88325 16.5969 4.83464 16.7497 4.83464 16.9163V16.9997ZM9.0013 12.833C8.19575 12.833 7.50825 12.5483 6.9388 11.9788C6.36936 11.4094 6.08464 10.7219 6.08464 9.91634C6.08464 9.11079 6.36936 8.42329 6.9388 7.85384C7.50825 7.2844 8.19575 6.99967 9.0013 6.99967C9.80686 6.99967 10.4944 7.2844 11.0638 7.85384C11.6332 8.42329 11.918 9.11079 11.918 9.91634C11.918 10.7219 11.6332 11.4094 11.0638 11.9788C10.4944 12.5483 9.80686 12.833 9.0013 12.833ZM9.0013 11.1663C9.34852 11.1663 9.64366 11.0448 9.88672 10.8018C10.1298 10.5587 10.2513 10.2636 10.2513 9.91634C10.2513 9.56912 10.1298 9.27398 9.88672 9.03092C9.64366 8.78787 9.34852 8.66634 9.0013 8.66634C8.65408 8.66634 8.35894 8.78787 8.11589 9.03092C7.87283 9.27398 7.7513 9.56912 7.7513 9.91634C7.7513 10.2636 7.87283 10.5587 8.11589 10.8018C8.35894 11.0448 8.65408 11.1663 9.0013 11.1663Z" fill="white"/>
</svg>
