<svg width="24" height="24" viewBox="0 0 24 24" fill="none" xmlns="http://www.w3.org/2000/svg">
<path d="M2.04465 4.49852C2.01774 4.29676 2.08812 4.09495 2.25393 3.97689C3.01187 3.43723 5.61179 2 11.8048 2C17.9978 2 20.5977 3.43722 21.3557 3.97689C21.5214 4.09495 21.5918 4.29676 21.5649 4.49852L19.7141 18.3792C19.5346 19.7261 18.7369 20.912 17.5572 21.5861L17.2087 21.7852C13.8602 23.6987 9.74934 23.6987 6.40082 21.7852L6.05241 21.5861C4.87266 20.912 4.07498 19.7261 3.89541 18.3792L2.04465 4.49852Z" stroke="black" stroke-width="1.2"/>
<path d="M2 5.26758C4.8008 8.17211 18.8048 8.17206 21.6056 5.26758" stroke="black" stroke-width="1.2"/>
<path d="M10.7148 19.4272L13.9824 15.615M13.9824 15.615L19.4285 18.338M13.9824 15.615L20.5177 12.3474" stroke="black" stroke-width="1.2"/>
<path d="M3.63281 17.2488L7.15741 16.7452C7.34051 16.7191 7.52612 16.7717 7.6682 16.8902L10.7126 19.4272L13.9802 22.6948" stroke="black" stroke-width="1.2"/>
<path d="M7.44531 16.7042L10.2935 13.3814C10.526 13.11 10.9335 13.0759 11.2081 13.3046L13.9805 15.615" stroke="black" stroke-width="1.2"/>
</svg>
