<svg width="36" height="36" viewBox="0 0 36 36" fill="none" xmlns="http://www.w3.org/2000/svg">
<mask id="mask0_1176_830" style="mask-type:alpha" maskUnits="userSpaceOnUse" x="7" y="7" width="22" height="22">
<rect x="7.5" y="7.5" width="20.5714" height="20.5714" fill="#D9D9D9"/>
</mask>
<g mask="url(#mask0_1176_830)">
<path d="M10.9282 24.6428C10.4567 24.6428 10.0532 24.4749 9.71744 24.1392C9.38172 23.8035 9.21387 23.3999 9.21387 22.9285V12.6428C9.21387 12.1713 9.38172 11.7678 9.71744 11.432C10.0532 11.0963 10.4567 10.9285 10.9282 10.9285H16.071L17.7853 12.6428H24.6424C25.1139 12.6428 25.5174 12.8106 25.8532 13.1463C26.1889 13.482 26.3567 13.8856 26.3567 14.357V17.1856C26.0853 17.0713 25.8032 16.9963 25.5103 16.9606C25.2174 16.9249 24.9282 16.9285 24.6424 16.9713V14.357H17.0782L15.3639 12.6428H10.9282V22.9285H17.871L17.7853 23.0142V24.6428H10.9282ZM19.4996 26.357V23.7213L24.2353 19.007C24.3639 18.8785 24.5067 18.7856 24.6639 18.7285C24.821 18.6713 24.9782 18.6428 25.1353 18.6428C25.3067 18.6428 25.471 18.6749 25.6282 18.7392C25.7853 18.8035 25.9282 18.8999 26.0567 19.0285L26.8496 19.8213C26.9639 19.9499 27.0532 20.0928 27.1174 20.2499C27.1817 20.407 27.2139 20.5642 27.2139 20.7213C27.2139 20.8785 27.1853 21.0392 27.1282 21.2035C27.071 21.3678 26.9782 21.5142 26.8496 21.6428L22.1353 26.357H19.4996ZM20.7853 25.0713H21.5996L24.1924 22.457L23.8067 22.0499L23.3996 21.6642L20.7853 24.257V25.0713ZM23.8067 22.0499L23.3996 21.6642L24.1924 22.457L23.8067 22.0499Z" fill="black"/>
</g>
</svg>
