<svg width="36" height="36" viewBox="0 0 24 24" fill="none" xmlns="http://www.w3.org/2000/svg">
<rect x="2" y="2" width="20" height="20" rx="3" fill="#EFF1F8"/>
<mask id="mask0_524_6834" style="mask-type:alpha" maskUnits="userSpaceOnUse" x="5" y="5" width="14" height="14">
<rect x="5" y="5" width="13.7143" height="13.7143" fill="#D9D9D9"/>
</mask>
<g mask="url(#mask0_524_6834)">
<path d="M7.28544 16.4285C6.97115 16.4285 6.7021 16.3166 6.47829 16.0928C6.25448 15.869 6.14258 15.5999 6.14258 15.2856V8.4285C6.14258 8.11422 6.25448 7.84517 6.47829 7.62136C6.7021 7.39755 6.97115 7.28564 7.28544 7.28564H10.714L11.8569 8.4285H16.4283C16.7426 8.4285 17.0116 8.54041 17.2354 8.76422C17.4592 8.98803 17.5711 9.25707 17.5711 9.57136V11.4571C17.3902 11.3809 17.2021 11.3309 17.0069 11.3071C16.8116 11.2833 16.6188 11.2856 16.4283 11.3142V9.57136H11.3854L10.2426 8.4285H7.28544V15.2856H11.914L11.8569 15.3428V16.4285H7.28544ZM12.9997 17.5714V15.8142L16.1569 12.6714C16.2426 12.5856 16.3378 12.5237 16.4426 12.4856C16.5473 12.4475 16.6521 12.4285 16.7569 12.4285C16.8712 12.4285 16.9807 12.4499 17.0854 12.4928C17.1902 12.5356 17.2854 12.5999 17.3711 12.6856L17.8997 13.2142C17.9759 13.2999 18.0354 13.3952 18.0783 13.4999C18.1212 13.6047 18.1426 13.7095 18.1426 13.8142C18.1426 13.919 18.1235 14.0261 18.0854 14.1356C18.0473 14.2452 17.9854 14.3428 17.8997 14.4285L14.7569 17.5714H12.9997ZM13.8569 16.7142H14.3997L16.1283 14.9714L15.8711 14.6999L15.5997 14.4428L13.8569 16.1714V16.7142ZM15.8711 14.6999L15.5997 14.4428L16.1283 14.9714L15.8711 14.6999Z" fill="black"/>
</g>
</svg>
