<svg viewBox="0 0 24 24" fill="none" xmlns="http://www.w3.org/2000/svg">
<rect x="2" y="2" width="20" height="20" rx="3" fill="#EFF1F8"/>
<mask id="mask0_524_6850" style="mask-type:alpha" maskUnits="userSpaceOnUse" x="5" y="5" width="14" height="14">
<rect x="5" y="5" width="13.7143" height="13.7143" fill="#D9D9D9"/>
</mask>
<g mask="url(#mask0_524_6850)"> 
<path d="M12.9994 17.5716V15.8145L16.1566 12.6716C16.2423 12.5859 16.3375 12.524 16.4423 12.4859C16.5471 12.4478 16.6518 12.4288 16.7566 12.4288C16.8709 12.4288 16.9804 12.4502 17.0852 12.4931C17.1899 12.5359 17.2852 12.6002 17.3709 12.6859L17.8994 13.2145C17.9756 13.3002 18.0352 13.3954 18.078 13.5002C18.1209 13.605 18.1423 13.7097 18.1423 13.8145C18.1423 13.9193 18.1233 14.0264 18.0852 14.1359C18.0471 14.2454 17.9852 14.3431 17.8994 14.4288L14.7566 17.5716H12.9994ZM13.8566 16.7145H14.3994L16.128 14.9716L15.8709 14.7002L15.5994 14.4431L13.8566 16.1716V16.7145ZM8.42801 17.5716C8.11373 17.5716 7.84468 17.4597 7.62087 17.2359C7.39706 17.0121 7.28516 16.7431 7.28516 16.4288V7.28592C7.28516 6.97164 7.39706 6.70259 7.62087 6.47878C7.84468 6.25497 8.11373 6.14307 8.42801 6.14307H12.9994L16.428 9.57164V11.2859H15.2852V10.1431H12.428V7.28592H8.42801V16.4288H11.8566V17.5716H8.42801ZM15.8709 14.7002L15.5994 14.4431L16.128 14.9716L15.8709 14.7002Z" fill="black"/>
</g>
</svg>
