<svg width="36" height="36" viewBox="0 0 36 36" fill="none" xmlns="http://www.w3.org/2000/svg">
<mask id="mask0_1176_834" style="mask-type:alpha" maskUnits="userSpaceOnUse" x="7" y="7" width="22" height="22">
<rect x="7.5" y="7.5" width="20.5714" height="20.5714" fill="#D9D9D9"/>
</mask>
<g mask="url(#mask0_1176_834)">
<path d="M19.4992 26.3575V23.7217L24.2349 19.0075C24.3634 18.8789 24.5063 18.786 24.6634 18.7289C24.8206 18.6717 24.9777 18.6432 25.1349 18.6432C25.3063 18.6432 25.4706 18.6753 25.6277 18.7396C25.7849 18.8039 25.9277 18.9003 26.0563 19.0289L26.8492 19.8217C26.9634 19.9503 27.0527 20.0932 27.117 20.2503C27.1813 20.4075 27.2134 20.5646 27.2134 20.7217C27.2134 20.8789 27.1849 21.0396 27.1277 21.2039C27.0706 21.3682 26.9777 21.5146 26.8492 21.6432L22.1349 26.3575H19.4992ZM20.7849 25.0717H21.5992L24.192 22.4575L23.8063 22.0503L23.3992 21.6646L20.7849 24.2575V25.0717ZM12.642 26.3575C12.1706 26.3575 11.767 26.1896 11.4313 25.8539C11.0956 25.5182 10.9277 25.1146 10.9277 24.6432V10.9289C10.9277 10.4575 11.0956 10.0539 11.4313 9.71817C11.767 9.38246 12.1706 9.2146 12.642 9.2146H19.4992L24.642 14.3575V16.9289H22.9277V15.2146H18.642V10.9289H12.642V24.6432H17.7849V26.3575H12.642ZM23.8063 22.0503L23.3992 21.6646L24.192 22.4575L23.8063 22.0503Z" fill="black"/>
</g>
</svg>
