<?xml version="1.0" encoding="UTF-8"?>
<svg id="_레이어_2" data-name="레이어 2" xmlns="http://www.w3.org/2000/svg" viewBox="0 0 339.95 55.39">
  <defs>
    <style>
      .cls-1 {
        fill: #353535;
      }

      .cls-1, .cls-2, .cls-3 {
        stroke-width: 0px;
      }

      .cls-2 {
        fill: #C55858;
      }

      .cls-3 {
        fill: #F49661;
      }
    </style>
  </defs>
  <g id="Layer_1" data-name="Layer 1">
    <g>
      <g>
        <path class="cls-3" d="m0,.02h24.72v1.38h-.87s-2.78.15-2.09,3.37c.53,2.52,12.87,33.61,12.87,33.61l-5.93,17.01h-5.47L4.2,4.97S3.06,2.03,0,1.36V.02Z"/>
        <path class="cls-3" d="m28.09,0h24.72v1.38h-.87s-2.78.15-2.09,3.37c.53,2.52,12.87,33.61,12.87,33.61l-5.93,17.01h-5.47L32.28,4.95s-1.13-2.95-4.2-3.61V0Z"/>
      </g>
      <g>
        <circle class="cls-2" cx="67.13" cy="7.08" r="7.08"/>
        <polygon class="cls-2" points="73.45 10.27 68.74 20.64 66.29 12.93 73.45 10.27"/>
      </g>
    </g>
    <g>
      <path class="cls-1" d="m97.39,55.39l-8.99-32.11h8.85l4.95,20.23,5.73-20.23h6.47l5.73,20.23,5-20.23h8.81l-8.94,32.11h-8.67l-5.14-18.12-5.14,18.12h-8.67Z"/>
      <path class="cls-1" d="m153.49,55.39l-5.6-10.37h-2.94v10.37h-8.21V23.28h12.84c3.27,0,6.02,1.05,8.23,3.14,2.22,2.09,3.33,4.75,3.33,7.96,0,1.93-.49,3.69-1.47,5.3-.98,1.61-2.31,2.88-3.99,3.83l6.61,11.88h-8.81Zm-8.53-24.54v7.2h4.54c1.01.03,1.83-.29,2.48-.96.64-.67.96-1.54.96-2.61s-.32-1.94-.96-2.61c-.64-.67-1.47-1.01-2.48-1.01h-4.54Z"/>
      <path class="cls-1" d="m165.19,23.28h8.21v32.11h-8.21V23.28Z"/>
      <path class="cls-1" d="m200.46,23.28v7.94h-7.94v24.17h-8.21v-24.17h-7.94v-7.94h24.08Z"/>
      <path class="cls-1" d="m211.65,47.68h12.43v7.71h-20.64V23.28h20.41v7.66h-12.2v4.45h11.05v7.57h-11.05v4.72Z"/>
      <path class="cls-1" d="m260.73,23.28v32.11h-8.16v-17.29l-7.8,12.89h-.83l-7.75-12.84v17.25h-8.21V23.28h8.21l8.16,13.72,8.21-13.72h8.16Z"/>
      <path class="cls-1" d="m285.81,55.39l-1.54-4.63h-10.93l-1.39,4.63h-8.89l10.23-32.11h10.34l10.62,32.11h-8.45Zm-10.35-11.7h6.47l-3.26-10.92-3.21,10.92Z"/>
      <path class="cls-1" d="m316.33,23.28v7.94h-7.94v24.17h-8.21v-24.17h-7.94v-7.94h24.08Z"/>
      <path class="cls-1" d="m327.52,47.68h12.43v7.71h-20.64V23.28h20.41v7.66h-12.2v4.45h11.05v7.57h-11.05v4.72Z"/>
    </g>
  </g>
</svg>