<svg width="31" height="22" viewBox="0 0 31 22" fill="none" xmlns="http://www.w3.org/2000/svg">
  <path d="M0 0.00640869H10.2256V0.530994H9.8657C9.8657 0.530994 8.71573 0.588014 9.00116 1.81204C9.22039 2.76998 14.3249 14.5883 14.3249 14.5883L11.8719 21.0544H9.60923L1.73736 1.88807C1.73736 1.88807 1.26579 0.770478 0 0.515788V0.00640869Z" fill="#F49661"/>
  <path d="M11.6194 0H21.8449V0.524585H21.4851C21.4851 0.524585 20.3351 0.581605 20.6205 1.80564C20.8398 2.76357 25.9443 14.5819 25.9443 14.5819L23.4913 21.048H21.2286L13.3526 1.88166C13.3526 1.88166 12.8852 0.760268 11.6152 0.50938V0H11.6194Z" fill="#F49661"/>
  <path d="M27.7666 5.3827C29.384 5.3827 30.6953 4.17774 30.6953 2.69135C30.6953 1.20496 29.384 0 27.7666 0C26.1491 0 24.8379 1.20496 24.8379 2.69135C24.8379 4.17774 26.1491 5.3827 27.7666 5.3827Z" fill="#C55858"/>
  <path d="M30.3817 3.90503L28.4334 7.84702L27.4199 4.91619L30.3817 3.90503Z" fill="#C55858"/>
</svg>
