<svg width="150" height="150" viewBox="0 0 150 150" fill="none" xmlns="http://www.w3.org/2000/svg">
<path d="M8 25.0361H52.6366V27.5276H51.0656C51.0656 27.5276 46.0458 27.7984 47.2918 33.6117C48.2488 38.1612 70.531 94.2905 70.531 94.2905L59.8232 125H49.9461L15.5839 33.9728C15.5839 33.9728 13.5254 28.6649 8 27.4553V25.0361Z" fill="#F49661"/>
<path d="M58.7217 25H103.358V27.4914H101.787C101.787 27.4914 96.7675 27.7622 98.0134 33.5756C98.9704 38.1251 121.253 94.2544 121.253 94.2544L110.545 124.964H100.668L66.2875 33.9366C66.2875 33.9366 64.2471 28.6108 58.7036 27.4192V25H58.7217Z" fill="#F49661"/>
<path d="M129.216 50.5642C136.276 50.5642 142 44.8414 142 37.7821C142 30.7227 136.276 25 129.216 25C122.155 25 116.431 30.7227 116.431 37.7821C116.431 44.8414 122.155 50.5642 129.216 50.5642Z" fill="#C55858"/>
<path d="M140.628 43.5413L132.123 62.2631L127.699 48.3436L140.628 43.5413Z" fill="#C55858"/>
</svg>
