<svg viewBox="7 6.02 31 31" xmlns="http://www.w3.org/2000/svg">
    <path d="M7 11.0064H17.2256V11.531H16.8657C16.8657 11.531 15.7157 11.588 16.0012 12.812C16.2204 13.77 21.3249 25.5883 21.3249 25.5883L18.8719 32.0544H16.6092L8.73736 12.8881C8.73736 12.8881 8.26579 11.7705 7 11.5158V11.0064Z" fill="#F49661"/>
    <path d="M18.6194 11H28.8449V11.5246H28.4851C28.4851 11.5246 27.3351 11.5816 27.6205 12.8056C27.8398 13.7636 32.9443 25.5819 32.9443 25.5819L30.4913 32.048H28.2286L20.3526 12.8817C20.3526 12.8817 19.8852 11.7603 18.6152 11.5094V11H18.6194Z" fill="#F49661"/>
    <path d="M34.7666 16.3827C36.384 16.3827 37.6953 15.1777 37.6953 13.6913C37.6953 12.205 36.384 11 34.7666 11C33.1491 11 31.8379 12.205 31.8379 13.6913C31.8379 15.1777 33.1491 16.3827 34.7666 16.3827Z" fill="#C55858"/>
    <path d="M37.3817 14.905L35.4334 18.847L34.4199 15.9162L37.3817 14.905Z" fill="#C55858"/>
</svg>