<svg width="24" height="24" viewBox="0 0 24 24" fill="none" xmlns="http://www.w3.org/2000/svg">
<g clip-path="url(#clip0_3_30316)">
<path d="M2.04269 4.49852C2.01579 4.29676 2.08616 4.09495 2.25197 3.97689C3.00992 3.43723 5.60984 2 11.8028 2C17.9958 2 20.5957 3.43722 21.3537 3.97689C21.5195 4.09495 21.5898 4.29676 21.5629 4.49852L19.7122 18.3792C19.5327 19.7261 18.7349 20.912 17.5552 21.5861L17.2068 21.7852C13.8583 23.6987 9.74739 23.6987 6.39887 21.7852L6.05045 21.5861C4.87071 20.912 4.07303 19.7261 3.89345 18.3792L2.04269 4.49852Z" stroke="#F49661" stroke-width="2"/>
<path d="M2 5.26758C4.8008 8.17211 18.8048 8.17206 21.6056 5.26758" stroke="#F49661" stroke-width="2"/>
<path d="M10.7136 19.4275L13.9812 15.6153M13.9812 15.6153L19.4272 18.3383M13.9812 15.6153L20.5164 12.3477" stroke="#F49661" stroke-width="2"/>
<path d="M3.63379 17.2484L7.15839 16.7448C7.34148 16.7187 7.5271 16.7713 7.66918 16.8898L10.7136 19.4268L13.9812 22.6944" stroke="#F49661" stroke-width="2"/>
<path d="M7.44604 16.7044L10.2942 13.3816C10.5267 13.1101 10.9342 13.0761 11.2088 13.3048L13.9813 15.6152" stroke="#F49661" stroke-width="2"/>
</g>
<defs>
<clipPath id="clip0_3_30316">
<rect width="24" height="24" fill="white"/>
</clipPath>
</defs>
</svg>
